# xmcd CD database file
#
# Track frame offsets:
#	150
#	6718
#	23503
#	46726
#	66210
#	96600
#	116598
#	137561
#	158238
#	180315
#	202955
#	229241
#	263186
#
# Disc length: 4406 seconds
#
# Revision: 0
# Processed by: cddbd v1.5.1PL2 Copyright (c) Steve Scherf et al.
# Submitted via: CDex 1.51
#
DISCID=ad11340d
DTITLE=Pandaemonium - Return To Reality
DYEAR=2005
DGENRE=Metal
TTITLE0=Introduction
TTITLE1=Time of Glory
TTITLE2=Evil Star
TTITLE3=Ancient Time
TTITLE4=Fires in the Sky
TTITLE5=Return to Reality
TTITLE6=Himn to the Fifth Element
TTITLE7=Miracle
TTITLE8=Flying over the Clouds
TTITLE9=Blazing Fire
TTITLE10=Warrior Lost in Time
TTITLE11=Land of Dreams
TTITLE12=Time of Glory(video)
EXTD=YEAR: 2005
EXTT0=
EXTT1=
EXTT2=
EXTT3=
EXTT4=
EXTT5=
EXTT6=
EXTT7=
EXTT8=
EXTT9=
EXTT10=
EXTT11=
EXTT12=
PLAYORDER=
